{
    "asset": {
        "generator": "https://3dviewer.net",
        "version": "2.0"
    },
    "scene": 0,
    "scenes": [
        {
            "nodes": [
                0
            ]
        }
    ],
    "nodes": [
        {
            "mesh": 0
        }
    ],
    "materials": [
        {
            "name": "858585",
            "pbrMetallicRoughness": {
                "baseColorFactor": [
                    0.23455058215026167,
                    0.23455058215026167,
                    0.23455058215026167,
                    1
                ]
            },
            "emissiveFactor": [
                0,
                0,
                0
            ],
            "doubleSided": true,
            "alphaMode": "OPAQUE"
        },
        {
            "name": "0D0D0D",
            "pbrMetallicRoughness": {
                "baseColorFactor": [
                    0.004024717016506897,
                    0.004024717016506897,
                    0.004024717016506897,
                    1
                ]
            },
            "emissiveFactor": [
                0,
                0,
                0
            ],
            "doubleSided": true,
            "alphaMode": "OPAQUE"
        },
        {
            "name": "D4D4D4",
            "pbrMetallicRoughness": {
                "baseColorFactor": [
                    0.6583748172725346,
                    0.6583748172725346,
                    0.6583748172725346,
                    1
                ]
            },
            "emissiveFactor": [
                0,
                0,
                0
            ],
            "doubleSided": true,
            "alphaMode": "OPAQUE"
        },
        {
            "name": "0F0F0F",
            "pbrMetallicRoughness": {
                "baseColorFactor": [
                    0.004776953478513362,
                    0.004776953478513362,
                    0.004776953478513362,
                    1
                ]
            },
            "emissiveFactor": [
                0,
                0,
                0
            ],
            "doubleSided": true,
            "alphaMode": "OPAQUE"
        },
        {
            "name": "000000",
            "pbrMetallicRoughness": {
                "baseColorFactor": [
                    0,
                    0,
                    0,
                    1
                ]
            },
            "emissiveFactor": [
                0,
                0,
                0
            ],
            "doubleSided": true,
            "alphaMode": "OPAQUE"
        },
        {
            "name": "83807D",
            "pbrMetallicRoughness": {
                "baseColorFactor": [
                    0.22696587349938613,
                    0.21586050010324417,
                    0.20507873637973145,
                    1
                ]
            },
            "emissiveFactor": [
                0,
                0,
                0
            ],
            "doubleSided": true,
            "alphaMode": "OPAQUE"
        },
        {
            "name": "220000",
            "pbrMetallicRoughness": {
                "baseColorFactor": [
                    0.015996293361446288,
                    0,
                    0,
                    1
                ]
            },
            "emissiveFactor": [
                0,
                0,
                0
            ],
            "doubleSided": true,
            "alphaMode": "OPAQUE"
        },
        {
            "name": "FF0000",
            "pbrMetallicRoughness": {
                "baseColorFactor": [
                    1,
                    0,
                    0,
                    1
                ]
            },
            "emissiveFactor": [
                0,
                0,
                0
            ],
            "doubleSided": true,
            "alphaMode": "OPAQUE"
        }
    ],
    "meshes": [
        {
            "name": "Kingsbright SA56-11EWA",
            "primitives": [
                {
                    "attributes": {
                        "POSITION": 1,
                        "NORMAL": 2
                    },
                    "mode": 4,
                    "material": 0,
                    "indices": 0
                },
                {
                    "attributes": {
                        "POSITION": 4,
                        "NORMAL": 5
                    },
                    "mode": 4,
                    "material": 1,
                    "indices": 3
                },
                {
                    "attributes": {
                        "POSITION": 7,
                        "NORMAL": 8
                    },
                    "mode": 4,
                    "material": 2,
                    "indices": 6
                },
                {
                    "attributes": {
                        "POSITION": 10,
                        "NORMAL": 11
                    },
                    "mode": 4,
                    "material": 3,
                    "indices": 9
                },
                {
                    "attributes": {
                        "POSITION": 13,
                        "NORMAL": 14
                    },
                    "mode": 4,
                    "material": 4,
                    "indices": 12
                },
                {
                    "attributes": {
                        "POSITION": 16,
                        "NORMAL": 17
                    },
                    "mode": 4,
                    "material": 5,
                    "indices": 15
                },
                {
                    "attributes": {
                        "POSITION": 19,
                        "NORMAL": 20
                    },
                    "mode": 4,
                    "material": 6,
                    "indices": 18
                },
                {
                    "attributes": {
                        "POSITION": 22,
                        "NORMAL": 23
                    },
                    "mode": 4,
                    "material": 7,
                    "indices": 21
                }
            ]
        }
    ],
    "buffers": [
        {
            "uri": "7seg.bin",
            "byteLength": 1952160
        }
    ],
    "bufferViews": [
        {
            "buffer": 0,
            "byteOffset": 0,
            "byteLength": 3840
        },
        {
            "buffer": 0,
            "byteOffset": 3840,
            "byteLength": 4560
        },
        {
            "buffer": 0,
            "byteOffset": 8400,
            "byteLength": 4560
        },
        {
            "buffer": 0,
            "byteOffset": 12960,
            "byteLength": 410772
        },
        {
            "buffer": 0,
            "byteOffset": 423732,
            "byteLength": 458604
        },
        {
            "buffer": 0,
            "byteOffset": 882336,
            "byteLength": 458604
        },
        {
            "buffer": 0,
            "byteOffset": 1340940,
            "byteLength": 174348
        },
        {
            "buffer": 0,
            "byteOffset": 1515288,
            "byteLength": 165072
        },
        {
            "buffer": 0,
            "byteOffset": 1680360,
            "byteLength": 165072
        },
        {
            "buffer": 0,
            "byteOffset": 1845432,
            "byteLength": 5640
        },
        {
            "buffer": 0,
            "byteOffset": 1851072,
            "byteLength": 6408
        },
        {
            "buffer": 0,
            "byteOffset": 1857480,
            "byteLength": 6408
        },
        {
            "buffer": 0,
            "byteOffset": 1863888,
            "byteLength": 4152
        },
        {
            "buffer": 0,
            "byteOffset": 1868040,
            "byteLength": 4032
        },
        {
            "buffer": 0,
            "byteOffset": 1872072,
            "byteLength": 4032
        },
        {
            "buffer": 0,
            "byteOffset": 1876104,
            "byteLength": 27720
        },
        {
            "buffer": 0,
            "byteOffset": 1903824,
            "byteLength": 19800
        },
        {
            "buffer": 0,
            "byteOffset": 1923624,
            "byteLength": 19800
        },
        {
            "buffer": 0,
            "byteOffset": 1943424,
            "byteLength": 1320
        },
        {
            "buffer": 0,
            "byteOffset": 1944744,
            "byteLength": 1416
        },
        {
            "buffer": 0,
            "byteOffset": 1946160,
            "byteLength": 1416
        },
        {
            "buffer": 0,
            "byteOffset": 1947576,
            "byteLength": 1464
        },
        {
            "buffer": 0,
            "byteOffset": 1949040,
            "byteLength": 1560
        },
        {
            "buffer": 0,
            "byteOffset": 1950600,
            "byteLength": 1560
        }
    ],
    "accessors": [
        {
            "bufferView": 0,
            "byteOffset": 0,
            "componentType": 5125,
            "count": 960,
            "type": "SCALAR"
        },
        {
            "bufferView": 1,
            "byteOffset": 0,
            "componentType": 5126,
            "count": 380,
            "min": [
                1.00653247643878,
                0.509999999999997,
                7.98
            ],
            "max": [
                9.15346752356122,
                14.73,
                8
            ],
            "type": "VEC3"
        },
        {
            "bufferView": 2,
            "byteOffset": 0,
            "componentType": 5126,
            "count": 380,
            "type": "VEC3"
        },
        {
            "bufferView": 3,
            "byteOffset": 0,
            "componentType": 5125,
            "count": 102693,
            "type": "SCALAR"
        },
        {
            "bufferView": 4,
            "byteOffset": 0,
            "componentType": 5126,
            "count": 38217,
            "min": [
                -0.837133092880245,
                -1.905,
                2.50000000000005
            ],
            "max": [
                10.7862939424198,
                17.145,
                6.17735402507404
            ],
            "type": "VEC3"
        },
        {
            "bufferView": 5,
            "byteOffset": 0,
            "componentType": 5126,
            "count": 38217,
            "type": "VEC3"
        },
        {
            "bufferView": 6,
            "byteOffset": 0,
            "componentType": 5125,
            "count": 43587,
            "type": "SCALAR"
        },
        {
            "bufferView": 7,
            "byteOffset": 0,
            "componentType": 5126,
            "count": 13756,
            "min": [
                -1.27,
                -1.905,
                0
            ],
            "max": [
                11.43,
                17.145,
                8
            ],
            "type": "VEC3"
        },
        {
            "bufferView": 8,
            "byteOffset": 0,
            "componentType": 5126,
            "count": 13756,
            "type": "VEC3"
        },
        {
            "bufferView": 9,
            "byteOffset": 0,
            "componentType": 5125,
            "count": 1410,
            "type": "SCALAR"
        },
        {
            "bufferView": 10,
            "byteOffset": 0,
            "componentType": 5126,
            "count": 534,
            "min": [
                -1.27,
                -1.905,
                7.98
            ],
            "max": [
                11.43,
                17.145,
                8
            ],
            "type": "VEC3"
        },
        {
            "bufferView": 11,
            "byteOffset": 0,
            "componentType": 5126,
            "count": 534,
            "type": "VEC3"
        },
        {
            "bufferView": 12,
            "byteOffset": 0,
            "componentType": 5125,
            "count": 1038,
            "type": "SCALAR"
        },
        {
            "bufferView": 13,
            "byteOffset": 0,
            "componentType": 5126,
            "count": 336,
            "min": [
                -0.769999999999997,
                -1.405,
                1.1
            ],
            "max": [
                10.93,
                16.645,
                1.5
            ],
            "type": "VEC3"
        },
        {
            "bufferView": 14,
            "byteOffset": 0,
            "componentType": 5126,
            "count": 336,
            "type": "VEC3"
        },
        {
            "bufferView": 15,
            "byteOffset": 0,
            "componentType": 5125,
            "count": 6930,
            "type": "SCALAR"
        },
        {
            "bufferView": 16,
            "byteOffset": 0,
            "componentType": 5126,
            "count": 1650,
            "min": [
                -0.25,
                -0.24817721852451602,
                -4
            ],
            "max": [
                10.41,
                15.488177218524514,
                1.5
            ],
            "type": "VEC3"
        },
        {
            "bufferView": 17,
            "byteOffset": 0,
            "componentType": 5126,
            "count": 1650,
            "type": "VEC3"
        },
        {
            "bufferView": 18,
            "byteOffset": 0,
            "componentType": 5125,
            "count": 330,
            "type": "SCALAR"
        },
        {
            "bufferView": 19,
            "byteOffset": 0,
            "componentType": 5126,
            "count": 118,
            "min": [
                0.19456259731305436,
                0.509999999999997,
                7.98
            ],
            "max": [
                10.11855562480847,
                14.73,
                7.98
            ],
            "type": "VEC3"
        },
        {
            "bufferView": 20,
            "byteOffset": 0,
            "componentType": 5126,
            "count": 118,
            "type": "VEC3"
        },
        {
            "bufferView": 21,
            "byteOffset": 0,
            "componentType": 5125,
            "count": 366,
            "type": "SCALAR"
        },
        {
            "bufferView": 22,
            "byteOffset": 0,
            "componentType": 5126,
            "count": 130,
            "min": [
                1.0765902024586467,
                0.509999999999998,
                7.98
            ],
            "max": [
                9.965437402686945,
                14.73,
                7.98
            ],
            "type": "VEC3"
        },
        {
            "bufferView": 23,
            "byteOffset": 0,
            "componentType": 5126,
            "count": 130,
            "type": "VEC3"
        }
    ]
}
