{
    "asset": {
        "generator": "https://3dviewer.net",
        "version": "2.0"
    },
    "scene": 0,
    "scenes": [
        {
            "nodes": [
                0
            ]
        }
    ],
    "nodes": [
        {
            "mesh": 0
        }
    ],
    "materials": [
        {
            "name": "858585",
            "pbrMetallicRoughness": {
                "baseColorFactor": [
                    0.23455058215026167,
                    0.23455058215026167,
                    0.23455058215026167,
                    1
                ]
            },
            "emissiveFactor": [
                0,
                0,
                0
            ],
            "doubleSided": true,
            "alphaMode": "OPAQUE"
        },
        {
            "name": "0205EF",
            "pbrMetallicRoughness": {
                "baseColorFactor": [
                    0.0006070539670588235,
                    0.0015176349176470587,
                    0.8631572134510892,
                    1
                ]
            },
            "emissiveFactor": [
                0,
                0,
                0
            ],
            "doubleSided": true,
            "alphaMode": "OPAQUE"
        },
        {
            "name": "83807D",
            "pbrMetallicRoughness": {
                "baseColorFactor": [
                    0.22696587349938613,
                    0.21586050010324417,
                    0.20507873637973145,
                    1
                ]
            },
            "emissiveFactor": [
                0,
                0,
                0
            ],
            "doubleSided": true,
            "alphaMode": "OPAQUE"
        },
        {
            "name": "D4D4D4",
            "pbrMetallicRoughness": {
                "baseColorFactor": [
                    0.6583748172725346,
                    0.6583748172725346,
                    0.6583748172725346,
                    1
                ]
            },
            "emissiveFactor": [
                0,
                0,
                0
            ],
            "doubleSided": true,
            "alphaMode": "OPAQUE"
        },
        {
            "name": "FFC476",
            "pbrMetallicRoughness": {
                "baseColorFactor": [
                    1,
                    0.55201140150344,
                    0.181164244239483,
                    1
                ]
            },
            "emissiveFactor": [
                0,
                0,
                0
            ],
            "doubleSided": true,
            "alphaMode": "OPAQUE"
        }
    ],
    "meshes": [
        {
            "name": "0-7 Rotary Encoder ERD208RSZ",
            "primitives": [
                {
                    "attributes": {
                        "POSITION": 1,
                        "NORMAL": 2
                    },
                    "mode": 4,
                    "material": 1,
                    "indices": 0
                },
                {
                    "attributes": {
                        "POSITION": 4,
                        "NORMAL": 5
                    },
                    "mode": 4,
                    "material": 2,
                    "indices": 3
                },
                {
                    "attributes": {
                        "POSITION": 7,
                        "NORMAL": 8
                    },
                    "mode": 4,
                    "material": 3,
                    "indices": 6
                },
                {
                    "attributes": {
                        "POSITION": 10,
                        "NORMAL": 11
                    },
                    "mode": 4,
                    "material": 4,
                    "indices": 9
                }
            ]
        }
    ],
    "buffers": [
        {
            "uri": "model.bin",
            "byteLength": 1712616
        }
    ],
    "bufferViews": [
        {
            "buffer": 0,
            "byteOffset": 0,
            "byteLength": 289680
        },
        {
            "buffer": 0,
            "byteOffset": 289680,
            "byteLength": 234072
        },
        {
            "buffer": 0,
            "byteOffset": 523752,
            "byteLength": 234072
        },
        {
            "buffer": 0,
            "byteOffset": 757824,
            "byteLength": 94032
        },
        {
            "buffer": 0,
            "byteOffset": 851856,
            "byteLength": 79200
        },
        {
            "buffer": 0,
            "byteOffset": 931056,
            "byteLength": 79200
        },
        {
            "buffer": 0,
            "byteOffset": 1010256,
            "byteLength": 57456
        },
        {
            "buffer": 0,
            "byteOffset": 1067712,
            "byteLength": 50916
        },
        {
            "buffer": 0,
            "byteOffset": 1118628,
            "byteLength": 50916
        },
        {
            "buffer": 0,
            "byteOffset": 1169544,
            "byteLength": 208944
        },
        {
            "buffer": 0,
            "byteOffset": 1378488,
            "byteLength": 167064
        },
        {
            "buffer": 0,
            "byteOffset": 1545552,
            "byteLength": 167064
        }
    ],
    "accessors": [
        {
            "bufferView": 0,
            "byteOffset": 0,
            "componentType": 5125,
            "count": 72420,
            "type": "SCALAR"
        },
        {
            "bufferView": 1,
            "byteOffset": 0,
            "componentType": 5126,
            "count": 19506,
            "min": [
                -1.19,
                -7.54,
                0
            ],
            "max": [
                8.81,
                2.46,
                5.4
            ],
            "type": "VEC3"
        },
        {
            "bufferView": 2,
            "byteOffset": 0,
            "componentType": 5126,
            "count": 19506,
            "type": "VEC3"
        },
        {
            "bufferView": 3,
            "byteOffset": 0,
            "componentType": 5125,
            "count": 23508,
            "type": "SCALAR"
        },
        {
            "bufferView": 4,
            "byteOffset": 0,
            "componentType": 5126,
            "count": 6600,
            "min": [
                -0.41662483009101725,
                -5.38,
                -3.4973224547225374
            ],
            "max": [
                8.03662483009102,
                0.30000000000000104,
                1.51250499974998
            ],
            "type": "VEC3"
        },
        {
            "bufferView": 5,
            "byteOffset": 0,
            "componentType": 5126,
            "count": 6600,
            "type": "VEC3"
        },
        {
            "bufferView": 6,
            "byteOffset": 0,
            "componentType": 5125,
            "count": 14364,
            "type": "SCALAR"
        },
        {
            "bufferView": 7,
            "byteOffset": 0,
            "componentType": 5126,
            "count": 4243,
            "min": [
                -0.564999999999999,
                -6.79000002980233,
                5.4
            ],
            "max": [
                8.06285822720972,
                1.8322658277867703,
                5.5
            ],
            "type": "VEC3"
        },
        {
            "bufferView": 8,
            "byteOffset": 0,
            "componentType": 5126,
            "count": 4243,
            "type": "VEC3"
        },
        {
            "bufferView": 9,
            "byteOffset": 0,
            "componentType": 5125,
            "count": 52236,
            "type": "SCALAR"
        },
        {
            "bufferView": 10,
            "byteOffset": 0,
            "componentType": 5126,
            "count": 13922,
            "min": [
                1.82,
                -4.524435556390548,
                4.9
            ],
            "max": [
                5.8,
                -0.5555644436094513,
                12.4
            ],
            "type": "VEC3"
        },
        {
            "bufferView": 11,
            "byteOffset": 0,
            "componentType": 5126,
            "count": 13922,
            "type": "VEC3"
        }
    ]
}